<?xml version="1.0" standalone="no"?><!DOCTYPE svg PUBLIC "-//W3C//DTD SVG 1.1//EN" "http://www.w3.org/Graphics/SVG/1.1/DTD/svg11.dtd"><svg t="1699842632193" class="icon" viewBox="0 0 1024 1024" version="1.1" xmlns="http://www.w3.org/2000/svg" p-id="4009" data-spm-anchor-id="a313x.search_index.0.i0.1c5e3a81YGNCIo" xmlns:xlink="http://www.w3.org/1999/xlink" width="200" height="200"><path d="M512 64c247.424 0 448 200.576 448 448s-200.576 448-448 448S64 759.424 64 512 264.576 64 512 64z m76.736 704h-140.458667a832.746667 832.746667 0 0 0 64.234667 106.666667H512c4.224 0 8.448-0.064 12.650667-0.213334A831.146667 831.146667 0 0 0 588.736 768zM354.133333 768h-98.986666a362.666667 362.666667 0 0 0 144.384 88.896A823.573333 823.573333 0 0 1 354.133333 768z m414.72 0h-85.973333c-12.053333 27.776-26.069333 55.466667-42.026667 83.093333a362.837333 362.837333 0 0 0 128-83.072zM300.224 554.666667H151.808a360.234667 360.234667 0 0 0 40.106667 128h131.349333a620.949333 620.949333 0 0 1-23.061333-128z m351.018667 0H385.792a546.496 546.496 0 0 0 26.837333 128h211.754667a546.496 546.496 0 0 0 26.837333-128z m220.970666 0h-135.381333a620.949333 620.949333 0 0 1-23.061333 128h118.314666a360.234667 360.234667 0 0 0 40.106667-128z m-548.906666-213.333334H191.914667a360.234667 360.234667 0 0 0-40.106667 128h148.373333a620.949333 620.949333 0 0 1 23.061334-128z m301.098666 0h-211.754666a546.496 546.496 0 0 0-26.837334 128h265.429334a546.496 546.496 0 0 0-26.837334-128z m207.68 0h-118.314666a620.949333 620.949333 0 0 1 23.061333 128h135.381333a360.234667 360.234667 0 0 0-40.106666-128zM399.573333 167.082667l-5.909333 1.984a362.773333 362.773333 0 0 0-138.517333 86.890666h98.986666a822.826667 822.826667 0 0 1 45.44-88.874666zM512.512 149.333333l-2.773333 3.989334a828.266667 828.266667 0 0 0-61.461334 102.656h140.458667a832.469333 832.469333 0 0 0-64.064-106.410667c-4.053333-0.149333-8.106667-0.213333-12.16-0.234667z m128.32 23.552l3.946667 6.869334A812.458667 812.458667 0 0 1 682.88 256h85.973333a362.986667 362.986667 0 0 0-128.021333-83.093333z" fill="#ffffff" p-id="4010"></path></svg>